# xmcd
#
# Track frame offsets:
#       150
#       20550
#       34650
#       44025
#       54150
#       64425
#       74775
#       86625
#       96375
#       107475
#       119100
#
# Disc length: 1735 seconds
#
# Revision: 1
# Processed by: cddbd v1.5.1PL0 Copyright (c) Steve Scherf et al.
# Submitted via: MusiCat 1.1
#
DISCID=a606c50b
DTITLE=Simon Dupree and the Big Sound - Without Reservations
DYEAR=1967
DGENRE=
TTITLE0=Medley: 60minutes of your love/A lot of love
TTITLE1=Love
TTITLE2=Get Off My bach
TTITLE3=There's A Little Picture Playhouse
TTITLE4=Dat Time night Time
TTITLE5=I See The Light
TTITLE6=What Is Soul
TTITLE7=Teacher Teacher
TTITLE8=Amen
TTITLE9=Who cares
TTITLE10=Reservations
EXTD=EMI Parlophone\nPCS 7029\nfrom vinyl
EXTT0=
EXTT1=
EXTT2=
EXTT3=
EXTT4=
EXTT5=
EXTT6=
EXTT7=
EXTT8=
EXTT9=
EXTT10=
PLAYORDER=
